<mxfile host="app.diagrams.net" modified="2024-03-07T23:41:56.306Z" agent="Mozilla/5.0 (Windows NT 10.0; Win64; x64) AppleWebKit/537.36 (KHTML, like Gecko) Chrome/122.0.0.0 Safari/537.36" etag="cmuuuyIpOSqpuTine5SD" version="24.0.2" type="google">
  <diagram name="PÃ¡gina-1" id="bR5Vxe-0D4L_w8GZxS0q">
    <mxGraphModel grid="1" page="1" gridSize="10" guides="1" tooltips="1" connect="1" arrows="1" fold="1" pageScale="1" pageWidth="827" pageHeight="1169" math="0" shadow="0">
      <root>
        <mxCell id="0" />
        <mxCell id="1" parent="0" />
        <mxCell id="8CnbCqSsiwwOUy5VDvhh-3" value="" style="group" vertex="1" connectable="0" parent="1">
          <mxGeometry y="-1169" width="370" height="340" as="geometry" />
        </mxCell>
        <mxCell id="eU_68gKmzJ3TjqNs6eQR-6" value="&lt;div style=&quot;&quot;&gt;+&lt;span style=&quot;white-space: pre;&quot;&gt;&#x9;&lt;/span&gt;isValidacao(); boolean&lt;/div&gt;&lt;div style=&quot;&quot;&gt;+&lt;span style=&quot;white-space: pre;&quot;&gt;&#x9;&lt;/span&gt;setValidacao(boolean validacao); void&lt;/div&gt;&lt;div style=&quot;&quot;&gt;+&lt;span style=&quot;white-space: pre;&quot;&gt;&#x9;&lt;/span&gt;getDescricao(); String&lt;/div&gt;&lt;div style=&quot;&quot;&gt;+&lt;span style=&quot;white-space: pre;&quot;&gt;&#x9;&lt;/span&gt;setDescricao(String descricao); void&lt;/div&gt;&lt;div style=&quot;&quot;&gt;+&lt;span style=&quot;white-space: pre;&quot;&gt;&#x9;&lt;/span&gt;getCor(); String&lt;/div&gt;&lt;div style=&quot;&quot;&gt;+&lt;span style=&quot;white-space: pre;&quot;&gt;&#x9;&lt;/span&gt;setCor(String cor); void&lt;/div&gt;&lt;div style=&quot;&quot;&gt;+&lt;span style=&quot;white-space: pre;&quot;&gt;&#x9;&lt;/span&gt;getListaDePortas(); arrayList&amp;lt;Aberturas&amp;gt;&lt;/div&gt;&lt;div style=&quot;&quot;&gt;+&lt;span style=&quot;white-space: pre;&quot;&gt;&#x9;&lt;/span&gt;setListaDePortas(ArrayList&amp;lt;Aberturas&amp;gt;listaDePortas); void&lt;/div&gt;&lt;div style=&quot;&quot;&gt;+&lt;span style=&quot;white-space: pre;&quot;&gt;&#x9;&lt;/span&gt;getListaDeJanelas(); ArrayList&amp;lt;Aberturas&amp;gt;&lt;/div&gt;&lt;div style=&quot;&quot;&gt;+&lt;span style=&quot;white-space: pre;&quot;&gt;&#x9;&lt;/span&gt;setListaDeJanelas(ArrayList&amp;lt;Aberturas&amp;gt; listaDeJanelas); void&lt;/div&gt;&lt;div style=&quot;&quot;&gt;&lt;br&gt;&lt;/div&gt;&lt;div style=&quot;&quot;&gt;+&lt;span style=&quot;white-space: pre;&quot;&gt;&#x9;&lt;/span&gt;coinstroiCasa(String descricao, String cor, ArrayList&amp;lt;Aberturas&amp;gt; listaDePortas, ArrayList&amp;lt;Aberturas&amp;gt; listaDeJanelas); void&lt;/div&gt;&lt;div style=&quot;&quot;&gt;&lt;br&gt;&lt;/div&gt;&lt;div style=&quot;&quot;&gt;+&lt;span style=&quot;white-space: pre;&quot;&gt;&#x9;&lt;/span&gt;retornaAbertura(int posicao, String tipoAbertura); Aberturas&lt;/div&gt;&lt;div style=&quot;&quot;&gt;+&lt;span style=&quot;white-space: pre;&quot;&gt;&#x9;&lt;/span&gt;moverAbertura(Aberturas abertura, int novoEstado); void&lt;/div&gt;&lt;div style=&quot;&quot;&gt;+&lt;span style=&quot;white-space: pre;&quot;&gt;&#x9;&lt;/span&gt;geraInfoCasa(); String&lt;/div&gt;&lt;div style=&quot;&quot;&gt;+&lt;span style=&quot;white-space: pre;&quot;&gt;&#x9;&lt;/span&gt;exibeTipoEstado(int numeroEstado); String&lt;/div&gt;&lt;div style=&quot;&quot;&gt;&lt;br&gt;&lt;/div&gt;" style="rounded=0;whiteSpace=wrap;html=1;align=left;" vertex="1" parent="8CnbCqSsiwwOUy5VDvhh-3">
          <mxGeometry y="29.612903225806452" width="370" height="310.38709677419354" as="geometry" />
        </mxCell>
        <mxCell id="eU_68gKmzJ3TjqNs6eQR-7" value="&lt;b&gt;Casa&lt;/b&gt;" style="html=1;whiteSpace=wrap;" vertex="1" parent="8CnbCqSsiwwOUy5VDvhh-3">
          <mxGeometry width="370" height="32.90322580645161" as="geometry" />
        </mxCell>
        <mxCell id="8CnbCqSsiwwOUy5VDvhh-4" value="" style="group" vertex="1" connectable="0" parent="1">
          <mxGeometry x="447" y="-1169" width="380" height="240" as="geometry" />
        </mxCell>
        <mxCell id="8CnbCqSsiwwOUy5VDvhh-5" value="&lt;div style=&quot;&quot;&gt;+&lt;span style=&quot;white-space: pre;&quot;&gt;&#x9;&lt;/span&gt;solicitaOpcao; int&lt;/div&gt;&lt;div style=&quot;&quot;&gt;+&lt;span style=&quot;white-space: pre;&quot;&gt;&#x9;&lt;/span&gt;exibeMsgEncerraPrograma(); void&lt;/div&gt;&lt;div style=&quot;&quot;&gt;+&lt;span style=&quot;white-space: pre;&quot;&gt;&#x9;&lt;/span&gt;solicitaDescricao(String descricao, int ordem); String&lt;/div&gt;&lt;div style=&quot;&quot;&gt;+&lt;span style=&quot;white-space: pre;&quot;&gt;&#x9;&lt;/span&gt;solicitaCor(); String&lt;/div&gt;&lt;div style=&quot;&quot;&gt;+&lt;span style=&quot;white-space: pre;&quot;&gt;&#x9;&lt;/span&gt;solicitaQtdAberturas(String Abertura); int&lt;/div&gt;&lt;div style=&quot;&quot;&gt;+&lt;span style=&quot;white-space: pre;&quot;&gt;&#x9;&lt;/span&gt;solicitaEstado(String tipoAbertura); int&lt;/div&gt;&lt;div style=&quot;&quot;&gt;+&lt;span style=&quot;white-space: pre;&quot;&gt;&#x9;&lt;/span&gt;solicitaTipoAbertura(); String&lt;/div&gt;&lt;div style=&quot;&quot;&gt;+&lt;span style=&quot;white-space: pre;&quot;&gt;&#x9;&lt;/span&gt;solicitaAberturaMover(arrayList&amp;lt;Abertura&amp;gt; listaDeAberturas); int&lt;/div&gt;&lt;div style=&quot;&quot;&gt;+&lt;span style=&quot;white-space: pre;&quot;&gt;&#x9;&lt;/span&gt;exibeMsgAbertura(); void&lt;/div&gt;&lt;div style=&quot;&quot;&gt;+&lt;span style=&quot;white-space: pre;&quot;&gt;&#x9;&lt;/span&gt;exibeInfoCasa(String informacoes); void&lt;/div&gt;&lt;div style=&quot;&quot;&gt;&lt;br&gt;&lt;/div&gt;" style="rounded=0;whiteSpace=wrap;html=1;align=left;" vertex="1" parent="8CnbCqSsiwwOUy5VDvhh-4">
          <mxGeometry y="6.49090909090909" width="380" height="233.5090909090909" as="geometry" />
        </mxCell>
        <mxCell id="8CnbCqSsiwwOUy5VDvhh-6" value="&lt;b&gt;EntradaSaida&lt;/b&gt;" style="html=1;whiteSpace=wrap;" vertex="1" parent="8CnbCqSsiwwOUy5VDvhh-4">
          <mxGeometry width="380" height="32.72727272727273" as="geometry" />
        </mxCell>
        <mxCell id="Llx_7TZOBQvRQicDa8KC-1" value="" style="group" vertex="1" connectable="0" parent="1">
          <mxGeometry y="-770" width="250" height="200" as="geometry" />
        </mxCell>
        <mxCell id="Llx_7TZOBQvRQicDa8KC-2" value="&lt;div style=&quot;&quot;&gt;+&lt;span style=&quot;white-space: pre;&quot;&gt;&#x9;&lt;/span&gt;getDescricao(); String&lt;/div&gt;&lt;div style=&quot;&quot;&gt;+&lt;span style=&quot;white-space: pre;&quot;&gt;&#x9;&lt;/span&gt;setDescricao(String descricao); void&lt;/div&gt;&lt;div style=&quot;&quot;&gt;+&lt;span style=&quot;white-space: pre;&quot;&gt;&#x9;&lt;/span&gt;getEstado();&lt;/div&gt;&lt;div style=&quot;&quot;&gt;+&lt;span style=&quot;white-space: pre;&quot;&gt;&#x9;&lt;/span&gt;setEstado(int estado); void&lt;/div&gt;" style="rounded=0;whiteSpace=wrap;html=1;align=left;" vertex="1" parent="Llx_7TZOBQvRQicDa8KC-1">
          <mxGeometry width="250.00000000000003" height="160" as="geometry" />
        </mxCell>
        <mxCell id="QtEetpI82a_84VTnw8oC-2" value="&lt;div&gt;&lt;b style=&quot;background-color: initial;&quot;&gt;Aberturas&lt;/b&gt;&lt;br&gt;&lt;/div&gt;" style="html=1;whiteSpace=wrap;" vertex="1" parent="Llx_7TZOBQvRQicDa8KC-1">
          <mxGeometry width="250" height="32.8" as="geometry" />
        </mxCell>
        <mxCell id="Llx_7TZOBQvRQicDa8KC-14" value="" style="group" vertex="1" connectable="0" parent="1">
          <mxGeometry x="667" y="-770" width="160" height="160" as="geometry" />
        </mxCell>
        <mxCell id="Llx_7TZOBQvRQicDa8KC-8" value="&lt;div style=&quot;&quot;&gt;+&lt;span style=&quot;white-space: pre;&quot;&gt;&#x9;&lt;/span&gt;main(String[] args); void&lt;/div&gt;" style="rounded=0;whiteSpace=wrap;html=1;align=left;container=0;" vertex="1" parent="Llx_7TZOBQvRQicDa8KC-14">
          <mxGeometry width="160" height="160" as="geometry" />
        </mxCell>
        <mxCell id="Llx_7TZOBQvRQicDa8KC-9" value="&lt;div&gt;&lt;b style=&quot;background-color: initial;&quot;&gt;Principal&lt;/b&gt;&lt;br&gt;&lt;/div&gt;" style="html=1;whiteSpace=wrap;" vertex="1" parent="Llx_7TZOBQvRQicDa8KC-14">
          <mxGeometry width="160" height="32" as="geometry" />
        </mxCell>
        <mxCell id="Llx_7TZOBQvRQicDa8KC-15" value="" style="group" vertex="1" connectable="0" parent="1">
          <mxGeometry x="420" y="-770" width="160" height="164" as="geometry" />
        </mxCell>
        <mxCell id="Llx_7TZOBQvRQicDa8KC-5" value="&lt;div style=&quot;&quot;&gt;+&lt;span style=&quot;white-space: pre;&quot;&gt;&#x9;&lt;/span&gt;ExibeMenu(); void&lt;/div&gt;" style="rounded=0;whiteSpace=wrap;html=1;align=left;" vertex="1" parent="Llx_7TZOBQvRQicDa8KC-15">
          <mxGeometry width="160" height="164" as="geometry" />
        </mxCell>
        <mxCell id="Llx_7TZOBQvRQicDa8KC-6" value="&lt;div&gt;&lt;b style=&quot;background-color: initial;&quot;&gt;Controladora&lt;/b&gt;&lt;br&gt;&lt;/div&gt;" style="html=1;whiteSpace=wrap;" vertex="1" parent="Llx_7TZOBQvRQicDa8KC-15">
          <mxGeometry width="160" height="32.8" as="geometry" />
        </mxCell>
        <mxCell id="QtEetpI82a_84VTnw8oC-4" value="" style="endArrow=diamondThin;endFill=1;endSize=24;html=1;rounded=0;exitX=0.5;exitY=0;exitDx=0;exitDy=0;entryX=0.5;entryY=1;entryDx=0;entryDy=0;" edge="1" parent="1" source="QtEetpI82a_84VTnw8oC-2" target="eU_68gKmzJ3TjqNs6eQR-6">
          <mxGeometry width="160" relative="1" as="geometry">
            <mxPoint x="450" y="-940" as="sourcePoint" />
            <mxPoint x="610" y="-940" as="targetPoint" />
            <Array as="points">
              <mxPoint x="125" y="-790" />
              <mxPoint x="185" y="-790" />
            </Array>
          </mxGeometry>
        </mxCell>
        <mxCell id="QtEetpI82a_84VTnw8oC-5" value="" style="endArrow=diamondThin;endFill=1;endSize=24;html=1;rounded=0;entryX=1;entryY=0.25;entryDx=0;entryDy=0;" edge="1" parent="1" source="8CnbCqSsiwwOUy5VDvhh-5" target="eU_68gKmzJ3TjqNs6eQR-6">
          <mxGeometry width="160" relative="1" as="geometry">
            <mxPoint x="450" y="-940" as="sourcePoint" />
            <mxPoint x="410" y="-1050" as="targetPoint" />
            <Array as="points">
              <mxPoint x="430" y="-1062" />
            </Array>
          </mxGeometry>
        </mxCell>
        <mxCell id="QtEetpI82a_84VTnw8oC-6" value="" style="endArrow=diamondThin;endFill=1;endSize=24;html=1;rounded=0;exitX=0.75;exitY=1;exitDx=0;exitDy=0;entryX=0;entryY=0.25;entryDx=0;entryDy=0;" edge="1" parent="1" source="eU_68gKmzJ3TjqNs6eQR-6" target="Llx_7TZOBQvRQicDa8KC-5">
          <mxGeometry width="160" relative="1" as="geometry">
            <mxPoint x="450" y="-940" as="sourcePoint" />
            <mxPoint x="610" y="-940" as="targetPoint" />
            <Array as="points">
              <mxPoint x="280" y="-790" />
              <mxPoint x="330" y="-790" />
              <mxPoint x="330" y="-730" />
            </Array>
          </mxGeometry>
        </mxCell>
        <mxCell id="QtEetpI82a_84VTnw8oC-8" value="" style="endArrow=diamondThin;endFill=1;endSize=24;html=1;rounded=0;exitX=1;exitY=0.5;exitDx=0;exitDy=0;entryX=0;entryY=0.5;entryDx=0;entryDy=0;" edge="1" parent="1" source="Llx_7TZOBQvRQicDa8KC-5" target="Llx_7TZOBQvRQicDa8KC-8">
          <mxGeometry width="160" relative="1" as="geometry">
            <mxPoint x="450" y="-940" as="sourcePoint" />
            <mxPoint x="610" y="-940" as="targetPoint" />
          </mxGeometry>
        </mxCell>
        <mxCell id="QtEetpI82a_84VTnw8oC-9" value="" style="endArrow=diamondThin;endFill=1;endSize=24;html=1;rounded=0;exitX=0.25;exitY=1;exitDx=0;exitDy=0;entryX=0.75;entryY=0;entryDx=0;entryDy=0;" edge="1" parent="1" source="8CnbCqSsiwwOUy5VDvhh-5" target="Llx_7TZOBQvRQicDa8KC-6">
          <mxGeometry width="160" relative="1" as="geometry">
            <mxPoint x="450" y="-940" as="sourcePoint" />
            <mxPoint x="610" y="-940" as="targetPoint" />
          </mxGeometry>
        </mxCell>
      </root>
    </mxGraphModel>
  </diagram>
</mxfile>
